# AST/ASF file generated using VICON BodyLanguage
# -----------------------------------------------
:version 1.10
:name VICON
:units
  mass 1.0
  length 0.45
  angle deg
:documentation
   .ast/.asf automatically generated from VICON data using
   VICON BodyBuilder and BodyLanguage model FoxedUp or BRILLIANT.MOD
:root
   order TX TY TZ RX RY RZ
   axis XYZ
   position 0 0 0  
   orientation 0 0 0 
:bonedata
  begin
     id 1 
     name lhipjoint
     direction 0.662698 -0.695252 0.27831 
     length 2.53073 
     axis 0 0 0  XYZ
  end
  begin
     id 2 
     name lfemur
     direction 0.34202 -0.939693 0  
     length 7.16147  
     axis 0 0 20  XYZ
    dof rx ry rz
    limits (-160.0 20.0)
           (-70.0 70.0)
           (-60.0 70.0)
  end
  begin
     id 3 
     name ltibia
     direction 0.34202 -0.939693 0   
     length 7.63967   
     axis 0 0 20   XYZ
    dof rx
    limits (-10.0 170.0)
  end
  begin
     id 4 
     name lfoot
     direction 0.0938457 -0.257721 0.961651   
     length 1.89793   
     axis -90 7.62852e-016 20   XYZ
    dof rx rz
    limits (-45.0 90.0)
           (-70.0 20.0)
  end
  begin
     id 5 
     name ltoes
     direction -0.00116841 -0.0030592 0.999995   
     length 0.955649   
     axis -90 7.62852e-016 20   XYZ
    dof rx
    limits (-90.0 20.0)
  end
  begin
     id 6 
     name rhipjoint
     direction -0.649445 -0.705948 0.282592   
     length 2.49238  
     axis 0 0 0  XYZ 
  end
  begin
     id 7 
     name rfemur
     direction -0.34202 -0.939693 0   
     length 6.90728   
     axis 0 0 -20   XYZ
    dof rx ry rz
    limits (-160.0 20.0)
           (-70.0 70.0)
           (-70.0 60.0)
  end
  begin
     id 8 
     name rtibia
     direction -0.34202 -0.939693 0   
     length 7.72868   
     axis 0 0 -20   XYZ
    dof rx
    limits (-10.0 170.0)
 end
 begin
     id 9 
     name rfoot
     direction -0.0920068 -0.252865 0.963117   
     length 1.97476  
     axis -90 -7.62852e-016 -20   XYZ
    dof rx rz
    limits (-45.0 90.0)
           (-20.0 70.0)
  end
  begin
     id 10 
     name rtoes
     direction 0.000391322 0.00230649 0.999997   
     length 0.992641   
     axis -90 -7.62852e-016 -20   XYZ
    dof rx
    limits (-90.0 20.0)
  end
  begin
     id 11 
     name lowerback
     direction -0.00875327 0.998321 -0.0572635   
     length 2.20024   
     axis 0 0 0   XYZ
    dof rx ry rz
    limits (-20.0 45.0)
           (-30.0 30.0)
           (-30.0 30.0)
  end
  begin
     id 12 
     name upperback
     direction 0.00753931 0.999972 -0.000360425   
     length 2.20538   
     axis 0 0 0   XYZ
    dof rx ry rz
    limits (-20.0 45.0)
           (-30.0 30.0)
           (-30.0 30.0)
  end
  begin
     id 13 
     name thorax
     direction 0.0117767 0.999601 0.0256663   
     length 2.21508   
     axis 0 0 0   XYZ
    dof rx ry rz
    limits (-20.0 45.0)
           (-30.0 30.0)
           (-30.0 30.0)
  end
  begin
     id 14 
     name lowerneck
     direction 0.060228 0.994909 0.0807986   
     length 1.7607   
     axis 0 0 0   XYZ
    dof rx ry rz
    limits (-20.0 45.0)
           (-30.0 30.0)
           (-30.0 30.0)
  end
  begin
     id 15 
     name upperneck
     direction -0.0563647 0.959594 -0.275685   
     length 1.75612   
     axis 0 0 0   XYZ
    dof rx ry rz
    limits (-20.0 45.0)
           (-30.0 30.0)
           (-30.0 30.0)
  end
  begin
     id 16
     name head
     direction -0.0161544 0.99458 -0.102714  
     length 1.79288  
     axis 0 0 0   XYZ
    dof rx ry rz
    limits (-20.0 45.0)
           (-30.0 30.0)
           (-30.0 30.0)
  end
  begin
     id 17 
     name lclavicle
     direction 0.93913 0.332189 -0.087669  
     length 3.52087  
     axis 0 0 0   XYZ
    dof ry rz
    limits (-20.0 10.0)
           (0.0 20.0)
  end
  begin
     id 18 
     name lhumerus
     direction 1 -4.48974e-011 -2.70836e-027   
     length 5.35289   
     axis -180 -30 -90   XYZ
    dof rx ry rz
    limits (-60.0 90.0)
           (-90.0 90.0)
           (-90.0 90.0)
  end
  begin
     id 19
     name lradius
     direction 1 -4.48961e-011 -9.76021e-027   
     length 3.27727   
     axis -180 -30 -90   XYZ
    dof rx
    limits (-10.0 170.0)
  end
  begin
     id 20
     name lwrist
     direction 1 -4.49103e-011 -2.23668e-026   
     length 1.63864   
     axis 1.44924e-014 90 90   XYZ
    dof ry
    limits (-180.0 0.0)
 end
  begin
     id 21 
     name lhand
     direction 1 3.0697e-005 0.000161777   
     length 0.54443   
     axis 2.85318e-014 90 90   XYZ
    dof rx rz
    limits (-90.0 90.0)
           (-45.0 45.0)
  end
  begin
     id 22 
     name lfingers
     direction 1 -4.49027e-011 -8.9447e-026   
     length 0.438912   
     axis 5.70628e-014 90 90   XYZ
    dof rx
    limits (0.0 90.0)
  end
  begin
     id 23
     name lthumb
     direction 0.707058 2.6516e-005 0.707156   
     length 0.630274   
     axis -90 45 -3.53137e-014   XYZ
    dof rx rz
    limits (-45.0 45.0)
           (-45.0 45.0)
  end
  begin
     id 24 
     name rclavicle
     direction -0.95274 0.284984 -0.105215   
     length 3.43401  
     axis 0 0 0   XYZ 
    dof ry rz
    limits (-10.0 20.0)
           (-20.0 0.0)
  end
  begin
     id 25 
     name rhumerus
     direction -0.999999 -0.000575019 -0.00106829  
     length 5.52077   
     axis -180 30 90   XYZ
    dof rx ry rz
    limits (-90.0 60.0)
           (-90.0 90.0)
           (-90.0 90.0)
  end
  begin
     id 26 
     name rradius
     direction -1 -4.4879e-011 -6.35415e-027   
     length 3.32364   
     axis -180 30 90   XYZ
    dof rx
    limits (-10.0 170.0)
  end
  begin
     id 27 
     name rwrist
     direction -1 -4.49048e-011 -9.98542e-027   
     length 1.66182   
     axis 6.32482e-015 -90 -90   XYZ
    dof ry
    limits (-180.0 0.0)
  end
  begin
     id 28
     name rhand
     direction -1 -4.48978e-011 -1.99771e-026   
     length 0.732235   
     axis 1.27479e-014 -90 -90   XYZ
    dof rx rz
    limits (-90.0 90.0)
           (-45.0 45.0)
  end
  begin
     id 29
     name rfingers
     direction -1 -4.49144e-011 -3.99245e-026   
     length 0.590347   
     axis 2.5496e-014 -90 -90   XYZ
    dof rx
    limits (0.0 90.0)
  end
  begin
     id 30
     name rthumb
     direction -0.707107 -6.35121e-011 0.707107   
     length 0.847624   
     axis -90 -45 -2.82974e-014   XYZ
    dof rx rz
    limits (-45.0 45.0)
           (-45.0 45.0)
  end
:hierarchy
  begin
    root lhipjoint rhipjoint lowerback
    lhipjoint lfemur
    lfemur ltibia
    ltibia lfoot
    lfoot ltoes
    rhipjoint rfemur
    rfemur rtibia
    rtibia rfoot
    rfoot rtoes
    lowerback upperback
    upperback thorax
    thorax lowerneck lclavicle rclavicle
    lowerneck upperneck
    upperneck head
    lclavicle lhumerus
    lhumerus lradius
    lradius lwrist
    lwrist lhand lthumb
    lhand lfingers
    rclavicle rhumerus
    rhumerus rradius
    rradius rwrist
    rwrist rhand rthumb
    rhand rfingers
  end

#!OML:ASF G:\Work\Work\Patient Classification 1\Elijah\terrain1\Elijah.ASF
:FULLY-SPECIFIED
:DEGREES
2214
root 24.4688 21.7145 -20.4031 194.306 -57.1293 -189.611
lowerback 4.08115 1.71692 3.5217
upperback 2.10477 2.34841 1.39527
thorax -0.038975 1.16366 -0.633104
lowerneck -6.20287 15.67 1.95693
upperneck 22.5029 23.2509 -10.3274
head 9.6571 9.8316 -1.29087
rclavicle 9.50191e-014 -2.8625e-014
rhumerus -35.0841 -1.55648 -74.7274
rradius 37.0779
rwrist -6.55324
rhand -20.2301 21.4931
rfingers 7.12502
rthumb 6.1177 -8.39854
lclavicle 9.50191e-014 -2.8625e-014
lhumerus -61.0727 -5.92094 85.4657
lradius 40.9107
lwrist 12.1505
lhand -9.97604 26.542
lfingers 7.12502
lthumb 16.0067 55.9007
rfemur -24.6303 -1.95393 13.2266
rtibia 41.0436
rfoot -24.3491 -3.87656
rtoes -19.2168
lfemur -40.0143 11.4589 -35.7254
ltibia 70.15
lfoot -13.446 -10.4156
ltoes -60.1592
2215
root 24.4291 21.7014 -20.4571 194.19 -57.8158 -189.169
lowerback 3.78489 1.46164 3.59168
upperback 1.99968 2.00085 1.59105
thorax 0.00119109 0.98911 -0.452206
lowerneck -6.11826 15.4113 1.07226
upperneck 21.9058 22.9745 -10.6873
head 9.3545 9.63758 -1.35666
rclavicle 5.68524e-014 -1.59028e-014
rhumerus -35.0245 -0.941431 -74.8882
rradius 38.3886
rwrist -7.75306
rhand -20.2457 21.358
rfingers 7.12502
rthumb 6.10257 -8.53407
lclavicle 5.68524e-014 -1.59028e-014
lhumerus -61.7061 -6.42973 86.4494
lradius 41.3523
lwrist 12.0098
lhand -5.95714 27.561
lfingers 7.12502
lthumb 19.8736 56.5648
rfemur -24.6019 -2.18694 13.725
rtibia 41.2577
rfoot -24.7602 -4.25934
rtoes -19.0027
lfemur -40.6706 12.0603 -35.8548
ltibia 69.664
lfoot -13.956 -9.11605
ltoes -61.4595
2216
root 24.3956 21.6748 -20.5005 194.866 -57.7166 -190.091
lowerback 4.01249 1.55745 2.99079
upperback 1.99227 2.12403 1.43282
thorax -0.146579 1.0478 -0.290672
lowerneck -6.38821 15.8772 2.40827
upperneck 22.6267 23.5926 -10.6149
head 9.85831 9.97533 -1.36629
rclavicle -5.56597e-015 -1.43125e-014
rhumerus -35.1147 -0.926877 -74.9509
rradius 39.6378
rwrist -8.998
rhand -20.667 21.735
rfingers 7.12502
rthumb 5.69582 -8.16847
lclavicle -5.56597e-015 -1.43125e-014
lhumerus -61.7083 -6.3276 86.4957
lradius 40.4505
lwrist 10.8852
lhand -9.20076 27.765
lfingers 7.12502
lthumb 16.7532 57.0622
rfemur -24.4452 -1.82095 13.1919
rtibia 41.5899
rfoot -25.1622 -4.47278
rtoes -18.3871
lfemur -40.7833 13.7328 -36.9944
ltibia 68.8534
lfoot -14.9156 -7.33116
ltoes -60.8524
2217
root 24.3536 21.6801 -20.5625 195.711 -57.8 -191.215
lowerback 4.11333 1.60661 2.16204
upperback 2.00699 2.16777 1.35231
thorax -0.21574 1.06623 0.0845597
lowerneck -6.3354 15.4033 1.19025
upperneck 21.9981 23.0304 -10.8971
head 9.47434 9.63114 -1.40713
rclavicle -5.96354e-015 1.43125e-014
rhumerus -35.1761 -1.03454 -74.8141
rradius 40.9068
rwrist -9.97112
rhand -20.4783 21.8088
rfingers 7.12502
rthumb 5.87808 -8.08962
lclavicle -5.96354e-015 1.43125e-014
lhumerus -60.2971 -1.30295 82.3451
lradius 37.209
lwrist 3.62147
lhand -11.8566 27.9222
lfingers 7.12502
lthumb 14.1952 57.4171
rfemur -24.0814 -1.49279 12.637
rtibia 41.8428
rfoot -25.6209 -5.08401
rtoes -18.4334
lfemur -40.9656 15.0347 -38.0883
ltibia 68.041
lfoot -14.914 -6.52619
ltoes -61.7436
2218
root 24.3052 21.6634 -20.5506 196.134 -58.6195 -191.729
lowerback 4.53546 1.32177 2.91116
upperback 1.89817 1.83461 1.20646
thorax -0.538066 0.900318 -0.482358
lowerneck -6.29702 15.6843 2.06615
upperneck 22.2149 23.4534 -11.2875
head 9.73789 9.8398 -1.57389
rclavicle -1.28415e-013 1.27222e-014
rhumerus -35.2321 -0.868116 -74.7741
rradius 42.2273
rwrist -10.741
rhand -20.8049 22.0345
rfingers 7.12502
rthumb 5.56276 -7.87249
lclavicle -1.28415e-013 1.27222e-014
lhumerus -59.7862 2.18452 79.227
lradius 35.2517
lwrist -0.678207
lhand -9.72159 27.2847
lfingers 7.12502
lthumb 16.2517 56.6236
rfemur -23.7821 -2.82977 12.4098
rtibia 42.1204
rfoot -26.0191 -4.94912
rtoes -19.3858
lfemur -41.2887 15.5688 -39.1596
ltibia 67.1903
lfoot -14.129 -5.18048
ltoes -61.9962
